<svg width="24" height="24" viewBox="0 0 24 24" fill="none" xmlns="http://www.w3.org/2000/svg">
<rect x="11" y="9" width="3" height="9" fill="white"/>
<path d="M12.0002 2.2002C12.3061 2.20023 12.5961 2.27779 12.8606 2.41699C13.1221 2.55468 13.3328 2.75051 13.4944 2.98535L13.5608 3.08887L13.5676 3.09961L22.8176 19.0996H22.8167C22.9846 19.3837 23.0782 19.7054 23.0618 20.0508C23.0477 20.346 22.9688 20.6288 22.8245 20.8887C22.6724 21.1623 22.4573 21.3831 22.1926 21.5449C21.9115 21.7167 21.5986 21.7998 21.2747 21.7998H2.72485C2.401 21.7998 2.08894 21.7167 1.80786 21.5449C1.54313 21.3831 1.32811 21.1623 1.17603 20.8887C1.03167 20.6288 0.952813 20.346 0.938721 20.0508C0.922074 19.7012 1.01688 19.3755 1.18872 19.0889L10.4329 3.09961L10.4387 3.08789C10.6073 2.80695 10.8409 2.57436 11.1399 2.41699C11.4044 2.27776 11.6943 2.2002 12.0002 2.2002ZM12.0002 16.7998C11.9184 16.7998 11.887 16.8193 11.8528 16.8535C11.8188 16.8876 11.8 16.9184 11.8 17C11.8 17.0816 11.8188 17.1124 11.8528 17.1465C11.887 17.1807 11.9184 17.2002 12.0002 17.2002C12.082 17.2002 12.1125 17.1807 12.1467 17.1465C12.1809 17.1123 12.2004 17.0818 12.2004 17C12.2004 16.9182 12.1809 16.8877 12.1467 16.8535C12.1125 16.8193 12.082 16.7998 12.0002 16.7998ZM12.0002 10.7998C11.9184 10.7998 11.887 10.8193 11.8528 10.8535C11.8188 10.8876 11.8 10.9184 11.8 11V14C11.8 14.0816 11.8188 14.1124 11.8528 14.1465C11.887 14.1807 11.9184 14.2002 12.0002 14.2002C12.082 14.2002 12.1125 14.1807 12.1467 14.1465C12.1809 14.1123 12.2004 14.0818 12.2004 14V11C12.2004 10.9182 12.1809 10.8877 12.1467 10.8535C12.1125 10.8193 12.082 10.7998 12.0002 10.7998Z" fill="#DB260A" stroke="white" stroke-width="1.6"/>
</svg>
