<svg width="24" height="24" viewBox="0 0 24 24" fill="none" xmlns="http://www.w3.org/2000/svg">
<g clip-path="url(#clip0_28_6)">
<rect x="6" y="8" width="12" height="9" fill="white"/>
<path d="M12 1.2002C13.4874 1.2002 14.8957 1.48271 16.2168 2.05273C17.5224 2.61612 18.6662 3.38495 19.6406 4.35938C20.615 5.3338 21.3839 6.47758 21.9473 7.7832C22.5173 9.10429 22.7998 10.5126 22.7998 12C22.7998 13.4874 22.5173 14.8957 21.9473 16.2168C21.3839 17.5224 20.615 18.6662 19.6406 19.6406C18.6662 20.615 17.5224 21.3839 16.2168 21.9473C14.8957 22.5173 13.4874 22.7998 12 22.7998C10.5126 22.7998 9.10429 22.5173 7.7832 21.9473C6.47758 21.3839 5.3338 20.615 4.35938 19.6406C3.38495 18.6662 2.61612 17.5224 2.05273 16.2168C1.48271 14.8957 1.2002 13.4874 1.2002 12C1.2002 10.5126 1.48271 9.10429 2.05273 7.7832C2.61612 6.47758 3.38495 5.3338 4.35938 4.35938C5.3338 3.38495 6.47758 2.61612 7.7832 2.05273C9.10429 1.48271 10.5126 1.2002 12 1.2002ZM16.25 9.375C16.2037 9.375 16.1749 9.38085 16.1553 9.38867L16.1152 9.41602L10.5996 14.9316L10.0342 14.3652L7.88477 12.2158C7.86612 12.1972 7.84283 12.1748 7.75 12.1748C7.65717 12.1748 7.63388 12.1972 7.61523 12.2158C7.59668 12.2344 7.57526 12.2576 7.5752 12.3496C7.5752 12.4421 7.59663 12.4658 7.61523 12.4844L10.4658 15.334C10.5257 15.3939 10.5592 15.4004 10.5996 15.4004C10.6402 15.4004 10.6743 15.3941 10.7344 15.334L16.3848 9.68457C16.4034 9.66594 16.4248 9.64248 16.4248 9.5498C16.4248 9.45778 16.4033 9.43458 16.3848 9.41602C16.3661 9.39737 16.3428 9.375 16.25 9.375Z" fill="#00A110" stroke="white" stroke-width="1.6"/>
</g>
<defs>
<clipPath id="clip0_28_6">
<rect width="24" height="24" fill="white"/>
</clipPath>
</defs>
</svg>
